<?xml version="1.0" encoding="UTF-8" standalone="no"?>
<svg
   xmlns:dc="http://purl.org/dc/elements/1.1/"
   xmlns:cc="http://creativecommons.org/ns#"
   xmlns:rdf="http://www.w3.org/1999/02/22-rdf-syntax-ns#"
   xmlns:svg="http://www.w3.org/2000/svg"
   xmlns="http://www.w3.org/2000/svg"
   viewBox="0 0 364.01334 78.866669"
   height="78.866669"
   width="364.01334"
   xml:space="preserve"
   id="svg2"
   version="1.1"><metadata
     id="metadata8"><rdf:RDF><cc:Work
         rdf:about=""><dc:format>image/svg+xml</dc:format><dc:type
           rdf:resource="http://purl.org/dc/dcmitype/StillImage" /></cc:Work></rdf:RDF></metadata><defs
     id="defs6" /><g
     transform="matrix(1.3333333,0,0,-1.3333333,0,78.866667)"
     id="g10"><g
       transform="scale(0.1)"
       id="g12"><path
         id="path14"
         style="fill:#2e3192;fill-opacity:1;fill-rule:nonzero;stroke:none"
         d="M 1760.69,7.38281 1841.75,411.34 h 267.29 l -17.41,-112.547 h -113.89 l -7.37,-40.195 h 97.81 L 2052.1,152.754 h -101.83 l -8.04,-43.543 h 102.5 L 2028.66,6.03516 1760.69,7.38281 v 0" /><path
         id="path16"
         style="fill:#2e3192;fill-opacity:1;fill-rule:nonzero;stroke:none"
         d="M 2055.45,17.4219 C 2086.26,4.6875 2121.77,0 2156.61,0 c 96.47,0 178.2,62.9805 191.6,137.336 4.69,29.48 0.66,53.598 -10.05,69.676 -18.76,28.808 -58.28,46.23 -80.39,66.324 -35.51,30.816 -2.01,45.551 24.11,40.863 32.83,-5.355 60.97,-30.816 73.03,-52.25 l 32.16,139.344 c -26.8,11.387 -62.31,18.75 -94.48,19.426 -138.66,5.355 -183.55,-85.09 -190.92,-130.641 -4.68,-26.125 1.34,-54.258 12.07,-71 15.41,-24.121 58.95,-50.258 72.35,-64.996 21.43,-24.102 -21.45,-44.211 -39.52,-40.184 -33.5,7.364 -49.58,22.098 -64.32,44.879 l -26.8,-141.3551 v 0" /><path
         id="path18"
         style="fill:#2e3192;fill-opacity:1;fill-rule:nonzero;stroke:none"
         d="m 2580,276.008 c -1.37,-22.36 -14.65,-40.188 -40.2,-40.188 h -9.38 l 10.73,70.336 h 6.69 c 16.4,0 33.53,-7.765 32.16,-30.148 z m -14.07,133.988 H 2425.91 L 2342.85,4.6875 2486.22,6.03516 2506.3,131.984 h 58.29 c 94.22,0 165.47,47.153 165.47,147.387 0,101.031 -74.63,130.625 -164.13,130.625" /><path
         id="path20"
         style="fill:#2e3192;fill-opacity:1;fill-rule:nonzero;stroke:none"
         d="M 884.43,409.332 822.125,87.7734 H 444.961 V 78.3906 L 808.727,14.7461 979.555,14.0703 1011.71,163.469 h 95.14 l 19.42,102.492 h -96.47 l 10.05,44.891 h 99.81 l 21.44,107.183 H 896.484 l 16.743,64.32 H 528.695 v -9.382 L 884.43,409.332 v 0" /><path
         id="path22"
         style="fill:#2e3192;fill-opacity:1;fill-rule:nonzero;stroke:none"
         d="m 1656.18,282.039 c -5.63,-24.219 -16.78,-40.199 -40.19,-40.199 h -9.38 l 10.71,70.351 h 6.71 c 16.56,0 38.31,-3.632 32.15,-30.152 z m -416.02,-117.898 42.2,124.593 2.68,-124.593 z m 401.94,251.89 H 1502.09 L 1423.05,31.4922 1400.93,420.719 H 1231.45 L 1036.5,13.4063 h 148.72 l 19.43,49.5742 h 69 l 2.68,-49.5742 h 286.06 l 20.1,124.6017 h 58.28 c 94.23,0 165.47,47.18 165.47,147.383 0,101.039 -74.63,130.64 -164.14,130.64" /><path
         id="path24"
         style="fill:#2e3192;fill-opacity:1;fill-rule:nonzero;stroke:none"
         d="M 0,75.7031 75.707,473.633 c 0,0 114.559,117.246 230.449,117.91 115.899,0.664 207.008,-109.188 207.008,-109.188 L 426.07,82.4023 c 0,0 -31.48,84.4137 -170.156,84.4137 C 110.543,178.199 0,75.7031 0,75.7031 v 0" /></g></g></svg>