<?xml version="1.0" encoding="UTF-8"?>
<!DOCTYPE svg PUBLIC "-//W3C//DTD SVG 1.1//EN" "http://www.w3.org/Graphics/SVG/1.1/DTD/svg11.dtd">
<!-- Creator: CorelDRAW -->
<svg xmlns="http://www.w3.org/2000/svg" xml:space="preserve" width="106.392mm" height="119.375mm" style="shape-rendering:geometricPrecision; text-rendering:geometricPrecision; image-rendering:optimizeQuality; fill-rule:evenodd; clip-rule:evenodd"
viewBox="0 0 123.822 138.932"
 xmlns:xlink="http://www.w3.org/1999/xlink">
 <defs>
  <style type="text/css">
   <![CDATA[
    .fil0 {fill:#1F1A17}
    .fil1 {fill:#DA251D}
   ]]>
  </style>
 </defs>
 <g id="Camada_x0020_1">
  <metadata id="CorelCorpID_0Corel-Layer"/>
  <g id="_90919680">
   <path id="_124851560" class="fil0" d="M56.7685 45.7277l0 -44.5215c5.15158,0.118944 10.2834,0.852041 15.2764,2.21919 -0.515228,3.05133 0.792452,6.10255 3.32867,7.86598l-14.7414 35.2487c-1.26811,-0.41607 -2.55601,-0.673625 -3.86369,-0.812354z"/>
   <path id="_124851488" class="fil0" d="M52.8816 45.7277l0 -44.4621c-7.01406,0.356598 -13.8696,2.08046 -20.2298,5.07232l16.4851 40.1624c1.20864,-0.396168 2.45685,-0.65384 3.74474,-0.772667z"/>
   <path id="_124851416" class="fil0" d="M46.1582 47.6186l-16.4057 -39.9445c-6.30086,3.22975 -11.9873,7.58876 -16.7426,12.8394l29.5224 29.5224c1.1096,-0.931181 2.31823,-1.74354 3.62592,-2.41728z"/>
   <path id="_124851344" class="fil0" d="M10.9657 22.9313c-4.33923,5.15158 -7.62821,11.1155 -9.66911,17.5154l36.6951 15.3557c0.633939,-1.24833 1.42651,-2.43718 2.33802,-3.50709l-29.364 -29.364z"/>
   <path id="_124851272" class="fil0" d="M36.7035 58.7543l-36.1798 -15.1377c-0.832255,6.45926 -0.673742,12.9978 0.475425,19.3976l34.8524 0c0.118827,-1.44629 0.41607,-2.87292 0.851924,-4.25985z"/>
   <path id="_124851200" class="fil0" d="M35.8631 66.2129l-33.9607 0c2.06056,5.34978 4.73551,10.4221 7.94536,15.1575l26.8277 -11.0164c-0.41607,-1.34737 -0.69341,-2.7343 -0.812354,-4.14114z"/>
   <path id="_124851128" class="fil0" d="M40.3804 76.7181c-0.951083,-1.10948 -1.76344,-2.31812 -2.41728,-3.62592l-25.8965 10.6202c3.60601,3.58634 7.58864,6.73672 11.8684,9.45124l16.4454 -16.4455z"/>
   <path id="_124851056" class="fil0" d="M60.9707 100.46c-0.376499,-3.07112 1.03022,-6.06309 3.6457,-7.72737l-4.10146 -10.1446c-6.20171,1.92195 -12.9582,0.554798 -17.9116,-3.6457l-15.851 15.8509c10.4815,5.56777 22.5084,7.56886 34.2184,5.66681z"/>
   <path id="_124850984" class="fil0" d="M63.2818 81.4455l4.12124 10.2239c3.19006,-0.534897 6.36022,0.911512 8.06418,3.64582 1.76344,-0.832255 3.50697,-1.70408 5.23084,-2.61548l-13.6913 -13.7111c-1.14917,0.970868 -2.39749,1.80301 -3.72496,2.45685z"/>
   <path id="_124850912" class="fil0" d="M112.551 70.205c-1.14917,-1.12938 -1.94174,-2.57579 -2.25876,-4.18071l-36.6357 0c-0.317028,3.94294 -1.88226,7.68768 -4.41848,10.6994l14.365 14.3649c10.4418,-5.78564 20.1506,-12.7997 28.9478,-20.8837z"/>
   <path id="_124850840" class="fil0" d="M91.8559 14.9474c1.72387,1.72375 3.32879,3.54666 4.83455,5.46849l-29.7205 29.7206c-1.08981,-0.911396 -2.25876,-1.68406 -3.50709,-2.33802l14.7414 -35.2486c2.7343,0.554798 5.56765,-0.396284 7.44991,-2.47675 2.17951,1.46619 4.25997,3.1108 6.20171,4.87424z"/>
   <g>
    <ellipse id="_124850768" class="fil1" cx="68.6872" cy="99.552" rx="4.7751" ry="4.79488"/>
    <circle id="_124850696" class="fil1" cx="119.027" cy="63.8342" r="4.79487"/>
    <circle id="_124850624" class="fil1" cx="79.7374" cy="4.79483" r="4.79487"/>
   </g>
   <polygon id="_124850528" class="fil0" points="20.0002,138.909 20.0002,126.327 25.3896,126.327 32.7206,135.006 32.7206,126.407 36.4853,126.407 36.4853,138.909 30.7393,138.909 23.6856,130.667 23.6856,138.909 "/>
   <polygon id="_124850456" class="fil0" points="39.645,138.909 39.645,126.228 43.1718,126.228 43.1718,138.909 "/>
   <path id="_124850384" class="fil0" d="M57.2938 134.287l3.50709 0 0 1.68418c0,1.74354 -1.50588,3.11069 -3.24953,2.93239l-7.2914 0c-1.82291,0 -3.32867,-1.36715 -3.52687,-3.17016l0 -6.34043c0,-1.88226 1.64461,-3.36836 3.52687,-3.17016l7.2914 0c1.68418,0 3.09102,1.26799 3.26932,2.93239l0 1.70396 -3.52687 0c-0.0197851,-0.851924 -0.733097,-1.50588 -1.58502,-1.46619l-3.68539 0c-0.931297,-0.0396866 -1.72387,0.673625 -1.76344,1.58514l0 3.17016c0.0395702,0.931297 0.832139,1.62471 1.76344,1.58514l3.68539 0c0.832139,0.0395702 1.54545,-0.594485 1.58502,-1.44641z"/>
   <path id="_124850312" class="fil0" d="M67.9041 136.913l-0.865192 2.0189 -3.7494 0 5.19138 -12.5461 5.76829 0 5.3357 12.5461 -4.03779 0 -0.576795 -2.0189 -7.0662 0zm5.6241 -3.0284l-4.32619 0 2.1631 -5.33558 2.1631 5.33558z"/>
   <polygon id="_124850240" class="fil0" points="86.0781,131.661 86.0781,138.853 82.5512,138.853 82.5512,126.172 86.6131,126.172 92.9733,136.059 98.8976,126.172 102.9,126.172 102.9,138.853 99.3731,138.853 99.3731,132.057 95.2914,138.853 90.6947,138.853 "/>
   <path id="_124850168" class="fil0" d="M106.143 138.909l0 -12.8345 11.1039 0c1.7305,0 3.0284,1.4421 3.3168,3.1726l0 3.461c0,1.7305 -1.5863,3.3168 -3.3168,3.3168l-7.35448 0 0 2.88409 -3.7494 0zm3.7494 -6.34509l0 -3.1726 5.62398 0c2.1631,0 2.1631,3.1726 0,3.1726l-5.62398 0z"/>
   <path id="_124850096" class="fil0" d="M4.55756 134.077l0 -7.92546 -3.52687 0 0 9.64932c0,1.68418 1.36715,3.03143 3.03155,3.03143l9.88709 0c1.68406,0 3.03143,-1.34725 3.03143,-3.03143l0 -9.55028 -3.52687 0 0 7.82641c0,0.871826 -0.713196,1.58514 -1.58502,1.58514l-5.72616 0c-0.871826,0 -1.58514,-0.713312 -1.58514,-1.58514z"/>
   <path id="_124850024" class="fil0" d="M107.824 41.1055c-1.78322,-4.2204 -3.74486,-8.36143 -5.88468,-12.4233 -1.08981,-1.92195 -2.23898,-3.80421 -3.44762,-5.64691l-29.3044 29.3046c0.931181,1.12938 1.74354,2.33802 2.39738,3.62592l36.2394 -14.8603z"/>
   <path id="_124849952" class="fil0" d="M109.085 44.0469c1.76332,4.57688 3.36824,9.23314 4.7553,13.9489 -1.78334,1.12938 -3.05133,2.95217 -3.50709,5.03264l-36.6554 0c-0.118827,-1.40672 -0.376383,-2.79366 -0.812354,-4.14103l36.2196 -14.8405z"/>
  </g>
 </g>
</svg>
